<svg width="51" height="74" viewBox="0 0 51 74" fill="none" xmlns="http://www.w3.org/2000/svg">
<path d="M48.123 17.5801C48.123 20.8678 47.4395 23.7161 46.0723 26.125C44.7051 28.5339 42.8496 30.5033 40.5059 32.0332C38.1947 33.5632 35.5905 34.6862 32.6934 35.4023V35.6953C38.4225 36.4115 42.7682 38.1693 45.7305 40.9688C48.7253 43.7682 50.2227 47.5117 50.2227 52.1992C50.2227 56.3659 49.1973 60.0931 47.1465 63.3809C45.1283 66.6686 42.0033 69.2565 37.7715 71.1445C33.5397 73.0326 28.0872 73.9766 21.4141 73.9766C17.4753 73.9766 13.7969 73.651 10.3789 73C6.99349 72.3815 3.80339 71.4212 0.808594 70.1191V57.2773C3.86849 58.8398 7.07487 60.028 10.4277 60.8418C13.7806 61.623 16.9056 62.0137 19.8027 62.0137C25.2064 62.0137 28.9824 61.0859 31.1309 59.2305C33.3118 57.3424 34.4023 54.7057 34.4023 51.3203C34.4023 49.3346 33.8978 47.6582 32.8887 46.291C31.8796 44.9238 30.1217 43.8822 27.6152 43.166C25.1413 42.4499 21.6745 42.0918 17.2148 42.0918H11.7949V30.5195H17.3125C21.707 30.5195 25.0436 30.1126 27.3223 29.2988C29.6335 28.4525 31.196 27.3132 32.0098 25.8809C32.8561 24.416 33.2793 22.7559 33.2793 20.9004C33.2793 18.3613 32.498 16.3757 30.9355 14.9434C29.373 13.5111 26.7689 12.7949 23.123 12.7949C20.8444 12.7949 18.7611 13.0879 16.873 13.6738C15.0176 14.2272 13.3411 14.9108 11.8438 15.7246C10.3464 16.5059 9.02799 17.2708 7.88867 18.0195L0.90625 7.61914C3.70573 5.60091 6.97721 3.92448 10.7207 2.58984C14.4967 1.25521 18.9889 0.587891 24.1973 0.587891C31.554 0.587891 37.3809 2.06901 41.6777 5.03125C45.9746 7.99349 48.123 12.1764 48.123 17.5801Z" fill="#8CACD0"/>
</svg>
