<svg width="51" height="73" viewBox="0 0 51 73" fill="none" xmlns="http://www.w3.org/2000/svg">
<path d="M50.9062 73H1.00391V62.502L18.9238 44.3867C22.5371 40.6758 25.4342 37.5833 27.6152 35.1094C29.8288 32.6029 31.4238 30.3242 32.4004 28.2734C33.4095 26.2227 33.9141 24.0254 33.9141 21.6816C33.9141 18.8496 33.1165 16.7337 31.5215 15.334C29.959 13.9017 27.8594 13.1855 25.2227 13.1855C22.4557 13.1855 19.7702 13.8203 17.166 15.0898C14.5618 16.3594 11.8438 18.166 9.01172 20.5098L0.808594 10.793C2.85938 9.03516 5.02409 7.375 7.30273 5.8125C9.61393 4.25 12.2832 2.99674 15.3105 2.05273C18.3704 1.07617 22.0326 0.587891 26.2969 0.587891C30.9844 0.587891 35.0046 1.43424 38.3574 3.12695C41.7428 4.81966 44.347 7.13086 46.1699 10.0605C47.9928 12.9577 48.9043 16.2454 48.9043 19.9238C48.9043 23.8626 48.123 27.4596 46.5605 30.7148C44.998 33.9701 42.7194 37.1927 39.7246 40.3828C36.7624 43.5729 33.1816 47.1048 28.9824 50.9785L19.8027 59.6211V60.3047H50.9062V73Z" fill="#BC672C"/>
</svg>
