<svg width="60" height="61" viewBox="0 0 60 61" fill="none" xmlns="http://www.w3.org/2000/svg">
<rect y="0.5" width="60" height="60" rx="30" fill="#42445A"/>
<path d="M18 23.6C18 22.4408 18.9408 21.5 20.1 21.5H36.3C37.4592 21.5 38.4 22.4408 38.4 23.6V33.8C38.4 34.357 38.1788 34.8911 37.7849 35.2849C37.3911 35.6788 36.857 35.9 36.3 35.9H20.1C19.543 35.9 19.0089 35.6788 18.6151 35.2849C18.2212 34.8911 18 34.357 18 33.8V23.6ZM21.6 23V24.2C21.6 24.4387 21.5052 24.6676 21.3364 24.8364C21.1676 25.0052 20.9387 25.1 20.7 25.1H19.5V26.9H20.7C21.0546 26.9 21.4057 26.8302 21.7332 26.6945C22.0608 26.5588 22.3585 26.3599 22.6092 26.1092C22.8599 25.8585 23.0588 25.5608 23.1945 25.2332C23.3302 24.9057 23.4 24.5546 23.4 24.2V23H21.6ZM28.2 31.7C28.9161 31.7 29.6028 31.4155 30.1092 30.9092C30.6155 30.4028 30.9 29.7161 30.9 29C30.9 28.2839 30.6155 27.5972 30.1092 27.0908C29.6028 26.5845 28.9161 26.3 28.2 26.3C27.4839 26.3 26.7972 26.5845 26.2908 27.0908C25.7845 27.5972 25.5 28.2839 25.5 29C25.5 29.7161 25.7845 30.4028 26.2908 30.9092C26.7972 31.4155 27.4839 31.7 28.2 31.7ZM19.5 32.3H20.7C20.9387 32.3 21.1676 32.3948 21.3364 32.5636C21.5052 32.7324 21.6 32.9613 21.6 33.2V34.4H23.4V33.2C23.4 32.4839 23.1155 31.7972 22.6092 31.2908C22.1028 30.7845 21.4161 30.5 20.7 30.5H19.5V32.3ZM34.8 33.2C34.8 32.9613 34.8948 32.7324 35.0636 32.5636C35.2324 32.3948 35.4613 32.3 35.7 32.3H36.9V30.5H35.7C34.9839 30.5 34.2972 30.7845 33.7908 31.2908C33.2845 31.7972 33 32.4839 33 33.2V34.4H34.8V33.2ZM34.8 24.2V23H33V24.2C33 24.5546 33.0698 24.9057 33.2055 25.2332C33.3412 25.5608 33.5401 25.8585 33.7908 26.1092C34.2972 26.6155 34.9839 26.9 35.7 26.9H36.9V25.1H35.7C35.4613 25.1 35.2324 25.0052 35.0636 24.8364C34.8948 24.6676 34.8 24.4387 34.8 24.2ZM20.8812 37.7C21.1972 38.2475 21.6518 38.7021 22.1993 39.0181C22.7468 39.3341 23.3679 39.5003 24 39.5H36.3C37.0485 39.5 37.7897 39.3526 38.4813 39.0661C39.1729 38.7797 39.8012 38.3598 40.3305 37.8305C40.8598 37.3012 41.2797 36.6729 41.5661 35.9813C41.8526 35.2897 42 34.5485 42 33.8V27.5C42.0002 26.8679 41.8339 26.2469 41.518 25.6994C41.202 25.1519 40.7474 24.6973 40.2 24.3812V33.8C40.2 34.8343 39.7891 35.8263 39.0577 36.5577C38.3263 37.2891 37.3343 37.7 36.3 37.7H20.8812Z" fill="#FFFAF7"/>
</svg>
