<svg width="20" height="20" viewBox="0 0 20 20" fill="none" xmlns="http://www.w3.org/2000/svg">
<path d="M10 2C5.58214 2 2 5.58214 2 10C2 14.4179 5.58214 18 10 18C14.4179 18 18 14.4179 18 10C18 5.58214 14.4179 2 10 2ZM10 16.6429C6.33214 16.6429 3.35714 13.6679 3.35714 10C3.35714 6.33214 6.33214 3.35714 10 3.35714C13.6679 3.35714 16.6429 6.33214 16.6429 10C16.6429 13.6679 13.6679 16.6429 10 16.6429Z" fill="#58595C"/>
<path d="M12.9366 12.0922L10.2208 10.3407V6.13591C10.2208 6.06116 10.1522 6 10.0684 6H9.15236C9.06856 6 9 6.06116 9 6.13591V10.8147C9 10.8588 9.02285 10.8996 9.06285 10.9251L12.2129 12.974C12.2815 13.0181 12.3767 13.0045 12.4262 12.9451L12.9709 12.2825C13.0204 12.2197 13.0052 12.1347 12.9366 12.0922Z" fill="#58595C"/>
</svg>
