<svg width="31" height="31" viewBox="0 0 31 31" fill="none" xmlns="http://www.w3.org/2000/svg">
<path fill-rule="evenodd" clip-rule="evenodd" d="M5 15.7825C5 15.5255 5.10207 15.2791 5.28374 15.0975C5.46542 14.9158 5.71182 14.8137 5.96875 14.8137H22.1927L18.0329 10.6558C17.851 10.4739 17.7488 10.2272 17.7488 9.96997C17.7488 9.71272 17.851 9.466 18.0329 9.2841C18.2148 9.10219 18.4615 9 18.7188 9C18.976 9 19.2227 9.10219 19.4046 9.2841L25.2171 15.0966C25.3073 15.1866 25.3789 15.2935 25.4278 15.4112C25.4766 15.5289 25.5017 15.655 25.5017 15.7825C25.5017 15.9099 25.4766 16.0361 25.4278 16.1538C25.3789 16.2715 25.3073 16.3784 25.2171 16.4683L19.4046 22.2808C19.2227 22.4628 18.976 22.5649 18.7188 22.5649C18.4615 22.5649 18.2148 22.4628 18.0329 22.2808C17.851 22.0989 17.7488 21.8522 17.7488 21.595C17.7488 21.3377 17.851 21.091 18.0329 20.9091L22.1927 16.7512H5.96875C5.71182 16.7512 5.46542 16.6492 5.28374 16.4675C5.10207 16.2858 5 16.0394 5 15.7825Z" fill="#EA4646"/>
</svg>
