<svg width="119" height="45" viewBox="0 0 119 45" fill="none" xmlns="http://www.w3.org/2000/svg">
<path d="M56.7685 6.91961C56.119 6.91961 55.5497 6.81192 55.0628 6.5981C54.5767 6.38351 54.2 6.07749 53.9319 5.68007C53.6615 5.28264 53.5283 4.80696 53.5283 4.25769C53.5283 3.70067 53.6623 3.225 53.9289 2.82835C54.1962 2.43169 54.5721 2.12723 55.0567 1.91419C55.5405 1.70191 56.1121 1.59655 56.7692 1.59655H56.8909V2.4255H56.619C56.1791 2.4255 55.7962 2.49832 55.4688 2.64009C55.1414 2.78341 54.8872 2.99181 54.7062 3.26529C54.5259 3.53876 54.435 3.86879 54.435 4.25692C54.435 4.64505 54.5251 4.97585 54.7062 5.24855C54.8872 5.52125 55.1414 5.7312 55.4688 5.87452C55.7962 6.01707 56.1791 6.08912 56.619 6.08912H56.8909V6.91806H56.7685V6.91961ZM56.5289 7.92131V0.594849H57.4125V7.92131H56.5289ZM57.0512 6.91961V6.09066H57.3239C57.763 6.09066 58.1467 6.01784 58.4741 5.87607C58.7992 5.73275 59.0542 5.5228 59.236 5.2501C59.4162 4.97663 59.5071 4.6466 59.5071 4.25847C59.5071 3.87034 59.417 3.53953 59.236 3.26683C59.0542 2.99336 58.7992 2.78496 58.4741 2.64164C58.1467 2.49909 57.763 2.42705 57.3239 2.42705H57.0512V1.5981H57.1714C57.8131 1.5981 58.3762 1.70656 58.8623 1.92348C59.3492 2.14195 59.7282 2.44951 60.0017 2.84617C60.2752 3.24592 60.4116 3.71617 60.4116 4.25847C60.4116 4.80774 60.2768 5.28341 60.0094 5.68084C59.7406 6.07827 59.3631 6.38351 58.877 6.59888C58.3901 6.8127 57.8223 6.92038 57.1706 6.92038H57.0512V6.91961Z" fill="white"/>
<path d="M62.6113 7.7988V0.71637H66.7983V1.54454H63.488V3.72148H65.6713V4.55043H63.488V6.95978H67.0194V7.7988H62.6113Z" fill="white"/>
<path d="M71.8545 7.92133C71.3206 7.92133 70.8684 7.81674 70.4948 7.60757C70.1227 7.3984 69.8222 7.11795 69.595 6.76468C69.3654 6.41296 69.1998 6.01864 69.0942 5.58402C68.9887 5.14863 68.9355 4.70782 68.9355 4.25849C68.9355 3.81303 68.9895 3.37376 69.0996 2.9407C69.209 2.50686 69.3777 2.11331 69.6096 1.76004C69.8415 1.40599 70.1412 1.12322 70.5133 0.9125C70.8838 0.701778 71.3314 0.595642 71.8545 0.595642C72.2875 0.595642 72.6541 0.657619 72.9538 0.782348C73.2535 0.907852 73.4985 1.06667 73.688 1.26035C73.8783 1.45402 74.0239 1.65855 74.1279 1.87005L73.3413 2.27522C73.2312 2.10943 73.1118 1.96224 72.9792 1.83286C72.8491 1.70271 72.695 1.59967 72.5132 1.52607C72.3321 1.4517 72.1118 1.41529 71.8545 1.41529C71.4786 1.41529 71.1619 1.50128 70.9039 1.67249C70.6442 1.84525 70.4378 2.0707 70.2822 2.35037C70.1258 2.63081 70.0125 2.9376 69.9447 3.27228C69.8746 3.6054 69.8407 3.93388 69.8407 4.25771C69.8407 4.60943 69.8808 4.95263 69.9563 5.28963C70.0341 5.62741 70.1543 5.93109 70.3191 6.20302C70.4832 6.47572 70.6912 6.69109 70.9455 6.85145C71.1981 7.01104 71.5009 7.09161 71.8537 7.09161C72.242 7.09161 72.5532 7.00872 72.7897 6.84138C73.0247 6.67404 73.2219 6.45712 73.3821 6.1914L74.1887 6.49508C74.067 6.75771 73.9029 6.99865 73.6942 7.21402C73.4877 7.43016 73.2312 7.60137 72.9284 7.72998C72.6249 7.85703 72.2667 7.92133 71.8545 7.92133Z" fill="white"/>
<path d="M77.913 7.7988V1.55616H75.9508V0.71637H80.7503V1.55616H78.7881V7.79957H77.913V7.7988Z" fill="white"/>
<path d="M82.9901 7.79884V0.716412H83.8552V5.64359C83.8552 5.72803 83.8529 5.83184 83.8475 5.95425C83.8421 6.07665 83.8352 6.19054 83.8259 6.29125C83.8729 6.19441 83.9238 6.09137 83.9784 5.98524C84.0331 5.87833 84.084 5.78923 84.1271 5.71409L87.2271 0.715637H88.1331V7.79884H87.2564V2.99252C87.2564 2.82286 87.2595 2.68108 87.2649 2.56255C87.2687 2.44402 87.2764 2.34563 87.2864 2.26351C87.2425 2.34796 87.1809 2.45487 87.1054 2.58502C87.0284 2.7144 86.9644 2.81976 86.9144 2.90188L83.8444 7.79807H82.9901V7.79884Z" fill="white"/>
<path d="M90.8196 7.7988V0.71637H93.3148C93.871 0.71637 94.3086 0.805462 94.6275 0.986745C94.9465 1.16803 95.173 1.40122 95.307 1.68786C95.4411 1.97373 95.5073 2.27509 95.5073 2.58808C95.5073 2.91268 95.418 3.20397 95.2361 3.46428C95.0551 3.72381 94.8001 3.92446 94.4712 4.06546C94.7439 4.15067 94.975 4.27463 95.1684 4.43654C95.3617 4.60078 95.5065 4.79524 95.6082 5.02145C95.7084 5.24612 95.7585 5.49558 95.7585 5.76518C95.7585 6.00534 95.7207 6.24395 95.6437 6.48489C95.5666 6.72427 95.4395 6.94352 95.2639 7.14184C95.0875 7.34172 94.8533 7.50131 94.5598 7.61984C94.2662 7.73992 93.9049 7.7988 93.4751 7.7988H90.8196ZM91.694 3.72148H93.143C93.6415 3.72148 94.0182 3.61845 94.267 3.41237C94.5182 3.20707 94.6414 2.9367 94.6414 2.59815C94.6414 2.42616 94.6091 2.25727 94.5436 2.09071C94.4789 1.9226 94.3541 1.78625 94.1692 1.67701C93.9858 1.56933 93.717 1.51587 93.3634 1.51587H91.694V3.72148ZM91.694 6.99H93.5752C93.9203 6.99 94.1892 6.93267 94.3803 6.81724C94.5721 6.70258 94.7054 6.55693 94.7809 6.3772C94.8563 6.19902 94.8933 6.01463 94.8933 5.82715C94.8933 5.59939 94.8486 5.38867 94.7577 5.18802C94.6676 4.98891 94.5035 4.82855 94.2662 4.70614C94.0305 4.58141 93.6923 4.52176 93.2532 4.52176H91.694V6.99Z" fill="white"/>
<path d="M97.4002 7.79884L99.8962 0.715637H100.711L103.207 7.79884H102.311L101.707 6.06968H98.9101L98.317 7.79884H97.4002ZM99.1705 5.28955H101.435L100.528 2.66869C100.506 2.60129 100.479 2.52304 100.451 2.43318C100.423 2.34408 100.395 2.25577 100.368 2.169C100.342 2.08456 100.321 2.00941 100.308 1.94976C100.291 2.00941 100.269 2.08456 100.244 2.169C100.22 2.25577 100.193 2.34408 100.164 2.43318C100.137 2.52227 100.11 2.60129 100.086 2.66869L99.1705 5.28955Z" fill="white"/>
<path d="M105.446 7.9212L105.044 7.20304C105.332 7.11163 105.565 6.99929 105.739 6.86372C105.916 6.72814 106.048 6.55229 106.141 6.33304C106.23 6.1138 106.293 5.83258 106.33 5.4917L106.843 0.71637H107.719L107.177 5.66446C107.105 6.3129 106.935 6.81259 106.662 7.16663C106.391 7.52223 105.984 7.77323 105.446 7.9212ZM110.467 7.7988V1.54454H106.985L107.146 0.71637H111.342V7.79957H110.467V7.7988Z" fill="white"/>
<path d="M114.029 7.7988V0.71637H114.906V3.71141H116.676C117.105 3.71141 117.469 3.77339 117.765 3.89579C118.062 4.01897 118.3 4.18166 118.483 4.38386C118.663 4.58684 118.796 4.80686 118.879 5.04702C118.96 5.2864 119 5.52114 119 5.75588C119 5.98442 118.96 6.21916 118.879 6.45932C118.796 6.69793 118.664 6.91873 118.483 7.12093C118.301 7.3239 118.062 7.48736 117.765 7.61209C117.469 7.7376 117.105 7.7988 116.676 7.7988H114.029ZM114.905 6.97993H116.756C117.118 6.97993 117.398 6.9195 117.595 6.79787C117.794 6.67701 117.931 6.52207 118.007 6.33537C118.086 6.14789 118.124 5.95421 118.124 5.75666C118.124 5.55988 118.085 5.37007 118.007 5.18337C117.93 4.99899 117.794 4.84404 117.595 4.72319C117.398 4.60233 117.118 4.54268 116.756 4.54268H114.905V6.97993Z" fill="white"/>
<path d="M54.0319 19.9442V12.8602H54.9085V16.3302L57.6549 12.8602H58.641L56.6981 15.3083L59.2149 19.9434H58.1996L56.1065 16.0474L54.9085 17.5248V19.9434H54.0319V19.9442Z" fill="white"/>
<path d="M61.4128 19.9442V12.8602H62.2779V17.7874C62.2779 17.8718 62.2756 17.9756 62.271 18.0988C62.2656 18.2212 62.2579 18.3343 62.2494 18.4343C62.2949 18.3374 62.3472 18.2352 62.4019 18.129C62.4566 18.0221 62.5067 17.9323 62.5506 17.8579L65.6498 12.8594H66.555V19.9434H65.6799V15.1363C65.6799 14.9667 65.6822 14.8241 65.6868 14.7064C65.6922 14.5878 65.6991 14.4894 65.7107 14.4073C65.6652 14.491 65.6059 14.5987 65.5281 14.728C65.4511 14.8582 65.3871 14.9643 65.3378 15.0441L62.2687 19.9426H61.4128V19.9442Z" fill="white"/>
<path d="M70.7512 19.9442V13.7H68.7899V12.8602H73.5901V13.7H71.6271V19.9442H70.7512Z" fill="white"/>
<path d="M74.2339 19.9442L76.7292 12.8602H77.5435L80.0403 19.9442H79.1443L78.5403 18.2135H75.7423L75.1492 19.9442H74.2339ZM76.0043 17.4341H78.2684L77.3624 14.8125C77.3393 14.7451 77.3139 14.6669 77.2839 14.5785C77.2569 14.4879 77.2284 14.4004 77.2014 14.3136C77.1745 14.2284 77.1552 14.1548 77.1413 14.0951C77.1252 14.1548 77.1036 14.2284 77.0797 14.3136C77.0543 14.3996 77.0266 14.4879 76.9988 14.5785C76.9703 14.6669 76.9449 14.7451 76.9202 14.8125L76.0043 17.4341Z" fill="white"/>
<path d="M82.0937 19.9442V12.8603H82.9588V17.7874C82.9588 17.8719 82.9573 17.9757 82.9519 18.0989C82.9473 18.2213 82.9396 18.3344 82.9303 18.4343C82.9758 18.3375 83.0282 18.2352 83.0829 18.1291C83.1375 18.0222 83.1876 17.9323 83.2308 17.8579L86.33 12.8595H87.2352V19.9435H86.3608V15.1364C86.3608 14.9667 86.3631 14.8242 86.3677 14.7064C86.3731 14.5879 86.3801 14.4895 86.3901 14.4074C86.3462 14.491 86.2853 14.5987 86.2098 14.7281C86.132 14.8582 86.0681 14.9644 86.018 15.0442L82.9488 19.9427H82.0937V19.9442ZM84.6398 12.1723C84.1976 12.1723 83.8286 12.0972 83.5343 11.9461C83.2408 11.7966 83.0212 11.5975 82.8764 11.3472C82.7292 11.0986 82.6568 10.8228 82.6568 10.5229H83.4418C83.4418 10.7089 83.4942 10.87 83.5998 11.0056C83.7069 11.1419 83.8494 11.2481 84.0304 11.3217C84.2115 11.3968 84.4141 11.4332 84.6398 11.4332C84.8647 11.4332 85.0681 11.3968 85.2507 11.3217C85.434 11.2481 85.5781 11.1419 85.686 11.0056C85.793 10.87 85.8477 10.7089 85.8477 10.5229H86.632C86.632 10.8235 86.558 11.0986 86.4109 11.3472C86.263 11.5975 86.0419 11.7966 85.7476 11.9461C85.451 12.0972 85.082 12.1723 84.6398 12.1723Z" fill="white"/>
<path d="M92.5393 20.064C92.0062 20.064 91.554 19.9594 91.1811 19.751C90.8082 19.5427 90.5093 19.2622 90.2798 18.9089C90.0517 18.5572 89.8846 18.1621 89.779 17.7267C89.6743 17.2921 89.6211 16.8513 89.6211 16.4012C89.6211 15.9557 89.6758 15.5157 89.7852 15.0834C89.8946 14.6496 90.0641 14.2568 90.2944 13.9027C90.5271 13.5487 90.8267 13.2667 91.1988 13.0552C91.5686 12.8453 92.017 12.7383 92.5393 12.7383C92.973 12.7383 93.3389 12.8011 93.6386 12.9266C93.9383 13.0506 94.184 13.2101 94.3743 13.4038C94.5623 13.5967 94.711 13.802 94.8134 14.0135L94.0284 14.4187C93.9167 14.2521 93.7965 14.1057 93.6656 13.9756C93.5362 13.8446 93.379 13.7431 93.1987 13.6695C93.0169 13.5952 92.7974 13.558 92.5393 13.558C92.1641 13.558 91.8467 13.644 91.5894 13.8152C91.3298 13.988 91.1233 14.2134 90.9669 14.4931C90.8106 14.7727 90.6981 15.0795 90.6295 15.4142C90.5602 15.7481 90.5263 16.0766 90.5263 16.3996C90.5263 16.7506 90.5648 17.0953 90.6411 17.4323C90.7189 17.7693 90.8398 18.0746 91.0039 18.3449C91.168 18.6184 91.3768 18.8346 91.6302 18.9934C91.8837 19.1537 92.1857 19.2343 92.5385 19.2343C92.9268 19.2343 93.2396 19.1514 93.4745 18.9849C93.7103 18.8175 93.9067 18.5998 94.0677 18.3341L94.8735 18.637C94.7533 18.9004 94.5877 19.1398 94.3805 19.3559C94.1717 19.5729 93.9152 19.7449 93.614 19.8727C93.3097 20.0013 92.9522 20.064 92.5393 20.064Z" fill="white"/>
<path d="M97.0966 19.9442V12.8602H97.974V16.3302L100.721 12.8602H101.706L99.7644 15.3083L102.281 19.9434H101.264L99.1712 16.0474L97.974 17.5248V19.9434H97.0966V19.9442Z" fill="white"/>
<path d="M106.96 20.064C106.407 20.064 105.939 19.9579 105.555 19.744C105.174 19.5287 104.867 19.2443 104.636 18.8888C104.405 18.5324 104.236 18.1381 104.13 17.7073C104.025 17.275 103.972 16.8404 103.972 16.4004C103.972 15.9627 104.025 15.5265 104.13 15.095C104.237 14.6635 104.405 14.2699 104.636 13.9135C104.868 13.558 105.174 13.2736 105.555 13.0583C105.939 12.8452 106.407 12.7368 106.96 12.7368C107.518 12.7368 107.987 12.8452 108.369 13.0583C108.752 13.2729 109.059 13.558 109.29 13.9135C109.521 14.2699 109.689 14.6642 109.792 15.095C109.897 15.5265 109.948 15.9619 109.948 16.4004C109.948 16.8396 109.897 17.275 109.792 17.7073C109.689 18.1388 109.52 18.5324 109.29 18.8888C109.058 19.2443 108.752 19.5279 108.369 19.744C107.987 19.9586 107.517 20.064 106.96 20.064ZM106.96 19.2351C107.349 19.2351 107.676 19.1491 107.941 18.9771C108.206 18.8051 108.42 18.5781 108.582 18.2969C108.745 18.0149 108.862 17.7081 108.935 17.3757C109.008 17.0434 109.043 16.718 109.043 16.4011C109.043 16.0541 109.008 15.7124 108.935 15.377C108.862 15.0415 108.745 14.7371 108.582 14.462C108.42 14.1862 108.207 13.967 107.941 13.8028C107.676 13.6393 107.348 13.5587 106.96 13.5587C106.573 13.5587 106.249 13.6447 105.983 13.8159C105.718 13.9887 105.505 14.2149 105.342 14.4961C105.18 14.7774 105.061 15.0857 104.987 15.4196C104.913 15.7535 104.875 16.0812 104.875 16.4011C104.875 16.7482 104.913 17.0906 104.987 17.4261C105.061 17.7615 105.18 18.066 105.342 18.3395C105.505 18.6137 105.718 18.8307 105.983 18.9933C106.249 19.1537 106.573 19.2351 106.96 19.2351Z" fill="white"/>
<path d="M112.329 19.9442V12.8603H113.194V17.7874C113.194 17.8719 113.192 17.9757 113.186 18.0989C113.181 18.2213 113.175 18.3344 113.165 18.4343C113.211 18.3375 113.262 18.2352 113.318 18.1291C113.373 18.0222 113.423 17.9323 113.466 17.8579L116.566 12.8595H117.469V19.9435H116.595V15.1364C116.595 14.9667 116.598 14.8242 116.603 14.7064C116.608 14.5879 116.615 14.4895 116.625 14.4074C116.581 14.491 116.521 14.5987 116.445 14.7281C116.366 14.8582 116.303 14.9644 116.253 15.0442L113.183 19.9427H112.329V19.9442ZM114.875 12.1723C114.433 12.1723 114.064 12.0972 113.769 11.9461C113.476 11.7966 113.256 11.5975 113.111 11.3472C112.965 11.0986 112.893 10.8228 112.893 10.5229H113.678C113.678 10.7089 113.731 10.87 113.836 11.0056C113.942 11.1419 114.085 11.2481 114.267 11.3217C114.447 11.3968 114.651 11.4332 114.876 11.4332C115.1 11.4332 115.304 11.3968 115.486 11.3217C115.67 11.2481 115.815 11.1419 115.922 11.0056C116.029 10.87 116.084 10.7089 116.084 10.5229H116.868C116.868 10.8235 116.793 11.0986 116.646 11.3472C116.499 11.5975 116.277 11.7966 115.983 11.9461C115.686 12.0972 115.316 12.1723 114.875 12.1723Z" fill="white"/>
<path d="M53.4988 32.0877L55.813 27.221L56.397 27.9174L54.4241 32.0877H53.4988ZM57.7351 30.4275L53.7007 25.0037H54.7261L57.7351 29.102V30.4275ZM57.3746 32.0877V25.0037H58.249V32.0877H57.3746ZM57.8861 30.4275V29.102L60.896 25.0037H61.9214L57.8861 30.4275ZM61.1972 32.0877L59.2243 27.9174L59.8082 27.221L62.1232 32.0877H61.1972Z" fill="white"/>
<path d="M64.3011 32.0877V25.0038H65.167V29.9317C65.167 30.0162 65.1647 30.1184 65.1601 30.2424C65.1547 30.3648 65.1477 30.4787 65.1369 30.5786C65.1839 30.4818 65.2355 30.3795 65.2902 30.2734C65.3449 30.1665 65.395 30.0774 65.4382 30.0014L68.5374 25.003H69.4441V32.087H68.5682V27.2806C68.5682 27.111 68.5705 26.9684 68.5751 26.8499C68.5805 26.7314 68.5875 26.633 68.5975 26.5501C68.5528 26.6338 68.4927 26.7438 68.4172 26.8731C68.3394 27.0025 68.2762 27.1071 68.2246 27.1892L65.1562 32.0862H64.3011V32.0877Z" fill="white"/>
<path d="M72.1306 32.0877V25.0037H74.6273C75.1836 25.0037 75.6211 25.0936 75.9393 25.2741C76.2582 25.4546 76.4847 25.6886 76.6195 25.9752C76.7528 26.2619 76.8206 26.5617 76.8206 26.8762C76.8206 27.1993 76.7305 27.4913 76.5479 27.7501C76.3669 28.0112 76.1119 28.211 75.7837 28.3536C76.0556 28.4373 76.2883 28.5612 76.4801 28.7247C76.6742 28.8889 76.8198 29.0834 76.92 29.3088C77.0209 29.535 77.071 29.7829 77.071 30.0525C77.071 30.2927 77.0332 30.5313 76.9554 30.7715C76.8776 31.0116 76.7513 31.2309 76.5764 31.43C76.3992 31.6291 76.165 31.7879 75.8723 31.908C75.578 32.0265 75.2167 32.0869 74.7876 32.0869H72.1306V32.0877ZM73.0072 28.0081H74.4563C74.9548 28.0081 75.3307 27.9066 75.5803 27.7005C75.8314 27.4952 75.9547 27.2233 75.9547 26.8855C75.9547 26.7135 75.9216 26.5446 75.8569 26.3781C75.7922 26.2107 75.6658 26.0728 75.4817 25.9659C75.2976 25.8575 75.0302 25.804 74.6766 25.804H73.0072V28.0081ZM73.0072 31.2781H74.8877C75.2336 31.2781 75.5017 31.2208 75.6928 31.1054C75.8846 30.9907 76.0171 30.8443 76.0926 30.6653C76.1689 30.4879 76.2066 30.3035 76.2066 30.1145C76.2066 29.8891 76.1612 29.676 76.0695 29.4769C75.9801 29.2778 75.816 29.1175 75.5795 28.9927C75.343 28.8703 75.0048 28.8091 74.5665 28.8091H73.0072V31.2781Z" fill="white"/>
<path d="M82.1488 32.2087C81.5949 32.2087 81.1273 32.1017 80.746 31.8879C80.3631 31.6741 80.0557 31.3882 79.8254 31.0326C79.5927 30.6755 79.4256 30.2835 79.3192 29.8504C79.2137 29.4189 79.1613 28.9843 79.1613 28.545C79.1613 28.1073 79.2137 27.6719 79.3192 27.2396C79.4263 26.8073 79.5927 26.4153 79.8254 26.059C80.0565 25.7018 80.3631 25.4175 80.746 25.2037C81.1273 24.9891 81.5957 24.8814 82.1488 24.8814C82.7066 24.8814 83.1757 24.9891 83.5586 25.2037C83.94 25.4167 84.2481 25.7018 84.4792 26.059C84.7096 26.4153 84.8783 26.8081 84.9823 27.2396C85.0855 27.6719 85.1379 28.1065 85.1379 28.545C85.1379 28.9835 85.0855 29.4189 84.9823 29.8504C84.8775 30.2843 84.7096 30.6755 84.4792 31.0326C84.2473 31.3882 83.94 31.6733 83.5586 31.8879C83.1757 32.1025 82.7058 32.2087 82.1488 32.2087ZM82.1488 31.3797C82.5387 31.3797 82.8653 31.2937 83.1303 31.1217C83.3953 30.9497 83.6079 30.7227 83.772 30.4408C83.9338 30.1588 84.0524 29.8512 84.1241 29.5204C84.1957 29.1873 84.2327 28.8627 84.2327 28.5458C84.2327 28.198 84.1957 27.8563 84.1241 27.5224C84.0524 27.1862 83.9338 26.8809 83.772 26.6044C83.6079 26.3301 83.3953 26.1109 83.1303 25.9482C82.8645 25.7839 82.5379 25.7026 82.1488 25.7026C81.7637 25.7026 81.4378 25.7878 81.1728 25.9598C80.9078 26.1326 80.6944 26.3596 80.531 26.64C80.3685 26.922 80.2506 27.2303 80.1759 27.5635C80.1035 27.8974 80.0657 28.2251 80.0657 28.5458C80.0657 28.8937 80.1035 29.2353 80.1759 29.5707C80.2506 29.9062 80.3685 30.2107 80.531 30.4841C80.6944 30.7584 80.9078 30.9745 81.1728 31.1372C81.4378 31.2976 81.7637 31.3797 82.1488 31.3797Z" fill="white"/>
<path d="M87.5176 32.0877V25.0037H92.4881V32.0877H91.623V25.8536H88.3936V32.0877H87.5176Z" fill="white"/>
<path d="M95.1752 32.0877V25.0037H96.0403V29.9317C96.0403 30.0161 96.0388 30.1184 96.0341 30.2423C96.0287 30.3647 96.021 30.4786 96.0118 30.5785C96.058 30.4817 96.1089 30.3794 96.1643 30.2733C96.219 30.1664 96.2691 30.0773 96.313 30.0014L99.4115 25.0029H100.318V32.0869H99.4423V27.2806C99.4423 27.1109 99.4438 26.9684 99.45 26.8498C99.4554 26.7313 99.4631 26.6329 99.4731 26.55C99.4277 26.6337 99.3676 26.7437 99.2905 26.8731C99.2143 27.0025 99.1503 27.1071 99.1002 27.1892L96.0318 32.0861H95.1752V32.0877Z" fill="white"/>
<path d="M105.622 32.2086C105.09 32.2086 104.637 32.1033 104.264 31.8956C103.892 31.6865 103.592 31.4052 103.363 31.052C103.136 30.7018 102.968 30.3067 102.863 29.8721C102.756 29.4359 102.704 28.9943 102.704 28.5458C102.704 28.1011 102.758 27.6603 102.867 27.2288C102.978 26.7942 103.146 26.4006 103.379 26.0458C103.609 25.6941 103.911 25.4105 104.283 25.199C104.652 24.9891 105.099 24.8829 105.622 24.8829C106.055 24.8829 106.422 24.9457 106.722 25.0696C107.023 25.1951 107.267 25.3547 107.457 25.5484C107.646 25.7421 107.794 25.9466 107.896 26.1573L107.111 26.5617C107 26.3975 106.88 26.2495 106.749 26.1194C106.619 25.9892 106.462 25.887 106.282 25.8134C106.101 25.739 105.88 25.7018 105.622 25.7018C105.246 25.7018 104.93 25.787 104.672 25.959C104.414 26.1318 104.207 26.3588 104.05 26.6369C103.894 26.9173 103.781 27.2241 103.713 27.5596C103.642 27.8927 103.609 28.2204 103.609 28.5442C103.609 28.8952 103.648 29.2384 103.725 29.5777C103.803 29.9147 103.923 30.2184 104.087 30.4895C104.253 30.763 104.46 30.9776 104.714 31.1372C104.967 31.2976 105.269 31.3789 105.622 31.3789C106.011 31.3789 106.323 31.2952 106.558 31.1294C106.792 30.9613 106.992 30.7452 107.152 30.4787L107.957 30.7824C107.837 31.0442 107.671 31.2844 107.464 31.5013C107.255 31.7159 107 31.8879 106.697 32.0165C106.393 32.1443 106.035 32.2086 105.622 32.2086Z" fill="white"/>
<path d="M110.18 32.0877V25.0037H111.045V29.9317C111.045 30.0161 111.043 30.1184 111.038 30.2423C111.033 30.3647 111.025 30.4786 111.016 30.5785C111.063 30.4817 111.113 30.3794 111.17 30.2733C111.224 30.1664 111.274 30.0773 111.318 30.0014L114.416 25.0029H115.322V32.0869H114.446V27.2806C114.446 27.1109 114.448 26.9684 114.454 26.8498C114.458 26.7313 114.468 26.6329 114.478 26.55C114.433 26.6337 114.372 26.7437 114.296 26.8731C114.219 27.0025 114.156 27.1071 114.105 27.1892L111.035 32.0861H110.18V32.0877Z" fill="white"/>
<path d="M54.0319 44.2331V37.1483H58.2489V37.9765H54.9085V44.2323H54.0319V44.2331Z" fill="white"/>
<path d="M60.855 44.3528L60.402 43.6145C60.7171 43.5882 60.9736 43.5541 61.1731 43.5153C61.3703 43.4766 61.5321 43.4169 61.6616 43.3364C61.7879 43.255 61.9019 43.1388 62.0028 42.9878C62.103 42.8351 62.2108 42.6368 62.3241 42.3905L59.8889 37.1487H60.8758L62.616 41.0541C62.6461 41.1184 62.6715 41.1796 62.6939 41.2392C62.717 41.2973 62.7401 41.3609 62.7632 41.429C62.7863 41.3609 62.811 41.2973 62.8364 41.2392C62.861 41.1796 62.8903 41.1137 62.9234 41.0394L64.6791 37.1487H65.6559L63.1199 42.602C62.9666 42.9297 62.8179 43.2 62.6777 43.4154C62.5359 43.6284 62.3857 43.7997 62.2216 43.9259C62.0591 44.0522 61.868 44.1475 61.6485 44.2118C61.4281 44.2746 61.1647 44.3234 60.855 44.3528Z" fill="white"/>
<path d="M67.7928 44.2331V37.1483H68.6687V40.1426H71.9906V37.1483H72.8649V44.2331H71.9906V40.9739H68.6687V44.2331H67.7928Z" fill="white"/>
<path d="M75.5526 44.2327V37.1479H76.4292V40.1422H78.2003C78.6287 40.1422 78.9931 40.2042 79.2889 40.3274C79.5855 40.4506 79.8243 40.6125 80.0061 40.8154C80.1879 41.0184 80.3196 41.2384 80.4013 41.4786C80.483 41.7172 80.5253 41.9535 80.5253 42.1875C80.5253 42.416 80.483 42.6507 80.4013 42.8901C80.3204 43.1295 80.1879 43.3511 80.0061 43.5517C79.8251 43.7539 79.5855 43.9189 79.2889 44.0429C78.9931 44.1676 78.6287 44.2312 78.2003 44.2312H75.5526V44.2327ZM75.7552 37.9769V37.1487H79.8204V37.9769H75.7552ZM76.4292 43.4115H78.2797C78.6425 43.4115 78.923 43.3519 79.1202 43.2294C79.3182 43.1086 79.4568 42.9552 79.5323 42.7669C79.6094 42.5802 79.6479 42.3858 79.6479 42.1882C79.6479 41.9922 79.6086 41.8017 79.5323 41.6157C79.4561 41.4306 79.3182 41.2764 79.1202 41.1555C78.923 41.0339 78.6425 40.9735 78.2797 40.9735H76.4292V43.4115Z" fill="white"/>
<path d="M82.8429 44.2331V37.1484H83.7088V42.0763C83.7088 42.1592 83.7065 42.2638 83.7003 42.387C83.6957 42.5094 83.6872 42.6233 83.678 42.7232C83.725 42.6264 83.7766 42.5233 83.8313 42.4164C83.886 42.311 83.9353 42.2212 83.9792 42.1453L87.0792 37.1476H87.9844V44.2323H87.1092V39.4252C87.1092 39.2556 87.1115 39.1138 87.1169 38.9945C87.1208 38.8767 87.1293 38.7784 87.1393 38.6955C87.0954 38.7799 87.0345 38.8876 86.9575 39.0177C86.8804 39.1471 86.8173 39.2525 86.7672 39.3338L83.698 44.2323H82.8429V44.2331Z" fill="white"/>
<path d="M18.2155 33.559C18.0869 33.9588 17.9598 34.3702 17.8311 34.7939C17.6925 34.3492 17.5569 33.9348 17.4259 33.5513L6.26085 0H0L15.3097 45H20.1769L35.4558 0H29.1919L18.2155 33.559Z" fill="white"/>
<path d="M45.0869 0H39.2258V45H45.0869V0Z" fill="white"/>
</svg>
